# xmcd CD database file
#
# Track frame offsets:
#	182
#	14630
#	27425
#	41507
#	55357
#	69077
#	80105
#	93980
#	107630
#	121097
#	135527
#	146795
#	157632
#	171765
#	183900
#	197045
#	210595
#	222342
#	236185
#	250545
#	264462
#
# Disc length: 3705 seconds
#
# Revision: 0
# Processed by: cddbd v1.5.2PL0 Copyright (c) Steve Scherf et al.
# Submitted via: CDex 1.51
#
DISCID=240e7715
DTITLE=Muggsy Tesch and the Chicagoans - Muggsy Tesch and the Chicagoans
DYEAR=1900
DGENRE=Jazz
TTITLE0=Sugar - McKenzie and Condon's Chicagoans
TTITLE1=China Boy - same
TTITLE2=Nobody's Sweetheart - same
TTITLE3=Liza - same
TTITLE4=Bull Frog Blues - Charles Pierce and His Orch
TTITLE5=China Boy - same
TTITLE6=Jazz Me Blues - same
TTITLE7=Sister Kate - same
TTITLE8=There'll Be Some Changes Made - The Chicago Rhythm Kings
TTITLE9=I've Found a New Baby - same
TTITLE10=Jazz Me Blues - Charles Pierce and His Orch
TTITLE11=Sister Kate - same
TTITLE12=Nobody's Sweetheart - same
TTITLE13=Jazz Me Blues - Frank Teschemacher's Chicagoans
TTITLE14=Baby Won't You Please Come Home - Louisiana Rhythm Kings
TTITLE15=Friars Point Shuffle - The Jungle Kings
TTITLE16=Darktown Strutters Ball - same
TTITLE17=One Step to Heaven - Miff Mole and His Molers
TTITLE18=Shim-Me-Sha-Wabble - same
TTITLE19=Oh Baby - Eddie Condon Quartet
TTITLE20=Indiana - same
EXTD=
EXTT0=
EXTT1=
EXTT2=
EXTT3=
EXTT4=
EXTT5=
EXTT6=
EXTT7=
EXTT8=
EXTT9=
EXTT10=
EXTT11=
EXTT12=
EXTT13=
EXTT14=
EXTT15=
EXTT16=
EXTT17=
EXTT18=
EXTT19=
EXTT20=
PLAYORDER=
